<svg width="41" height="40" viewBox="0 0 41 40" fill="none" xmlns="http://www.w3.org/2000/svg">
<g id="icon" clip-path="url(#clip0_99_141)">
<rect id="Rectangle 20" x="0.5" y="16.667" width="23.3333" height="23.3333" fill="#7595FD"/>
<path id="Vector" d="M33 4.99968C31.8952 5.00056 30.8359 5.43983 30.0547 6.22104C29.2735 7.00225 28.8342 8.06155 28.8333 9.16634C28.8333 9.76134 28.9633 10.3263 29.19 10.8413L25.9317 14.5063C24.8248 13.7423 23.5116 13.3331 22.1667 13.333C20.9333 13.333 19.7933 13.693 18.8017 14.2763L15.0117 10.488L14.9733 10.5263C15.3 9.86301 15.5 9.12468 15.5 8.33301C15.5 7.3441 15.2068 6.3774 14.6573 5.55516C14.1079 4.73291 13.327 4.09205 12.4134 3.71361C11.4998 3.33517 10.4945 3.23616 9.52455 3.42908C8.55465 3.62201 7.66373 4.09821 6.96447 4.79748C6.26521 5.49674 5.789 6.38765 5.59608 7.35756C5.40315 8.32746 5.50217 9.3328 5.8806 10.2464C6.25904 11.1601 6.89991 11.941 7.72215 12.4904C8.5444 13.0398 9.5111 13.333 10.5 13.333C11.2917 13.333 12.0283 13.133 12.6933 12.8063L12.655 12.8447L16.445 16.633C15.8327 17.6497 15.5063 18.8129 15.5 19.9997C15.5 21.6613 16.1333 23.1647 17.1417 24.3347L12.8467 28.628C12.3653 28.4353 11.8518 28.3352 11.3333 28.333C9.03667 28.333 7.16667 30.2013 7.16667 32.4997C7.16667 34.798 9.03667 36.6663 11.3333 36.6663C13.63 36.6663 15.5 34.798 15.5 32.4997C15.5 31.9647 15.39 31.4563 15.205 30.9847L19.935 26.2547C20.6367 26.5047 21.38 26.6663 22.1667 26.6663C25.8433 26.6663 28.8333 23.6763 28.8333 19.9997C28.8333 18.9397 28.5617 17.9513 28.12 17.0597L31.6483 13.088C32.075 13.2347 32.525 13.333 33 13.333C35.2983 13.333 37.1667 11.4647 37.1667 9.16634C37.1667 6.86801 35.2983 4.99968 33 4.99968ZM22.1667 23.333C20.3283 23.333 18.8333 21.838 18.8333 19.9997C18.8333 18.1613 20.3283 16.6663 22.1667 16.6663C24.005 16.6663 25.5 18.1613 25.5 19.9997C25.5 21.838 24.005 23.333 22.1667 23.333Z" fill="white"/>
</g>
<defs>
<clipPath id="clip0_99_141">
<rect width="40" height="40" fill="white" transform="translate(0.5)"/>
</clipPath>
</defs>
</svg>
